# xmcd
#
# Track frame offsets:
#	150
#	19672
#	36282
#
# Disc length: 736 seconds
#
# Revision: 0
# Processed by: cddbd v1.4PL0 Copyright (c) Steve Scherf et al.
# Submitted via: OrangeCD 4.1
#
DISCID=1b02de03
DTITLE=Sheryl Crow - Anything But Down
DYEAR=1900
DGENRE=
TTITLE0=Anything But Down
TTITLE1=Run Baby Run - Live In Milan
TTITLE2=Riverwide - Live From Wise Buddah
EXTD=
EXTT0=
EXTT1=
EXTT2=
PLAYORDER=
